<svg width="208" height="232" viewBox="0 0 208 232" fill="none" xmlns="http://www.w3.org/2000/svg">
<path d="M207.229 32.6549C193.155 22.9226 157.956 1.39838 108.444 0.0639904C53.1986 -1.41544 13.7517 23.1547 0 32.6549C0.0981265 57.9792 3.36434 151.183 69.796 207.822C81.3889 217.699 93.5286 225.3 105.584 231.145C119.504 224.821 134.335 215.828 148.353 202.905C211.939 144.308 208.323 51.4523 207.229 32.6549Z" fill="url(#paint0_linear_1546_6777)"/>
<path d="M103.828 33.9789L45.8075 68.789V138.409L103.828 173.959L161.849 138.409V68.789L103.828 33.9789Z" fill="white"/>
<path d="M103.129 158.705L58.1025 131.118V77.0903L103.129 104.387V158.705Z" fill="#1D74BA"/>
<path d="M103.831 159.979L57.4027 131.537V75.826L103.831 103.979V159.979ZM58.8045 130.71L102.429 157.441V104.805L58.8045 78.3642V130.71Z" fill="#1D74BA"/>
<path d="M58.7926 75.8308L103.833 48.8095L148.859 75.8308L103.833 103.142L58.7926 75.8308Z" fill="#69BD47"/>
<path d="M103.831 103.979L57.4027 75.826L103.831 47.9634L150.244 75.826L103.831 103.979ZM60.1783 75.826L103.831 102.296L147.469 75.826L103.831 49.6459L60.1783 75.826Z" fill="#69BD47"/>
<path d="M149.558 131.118L104.532 158.705V104.387L149.558 77.0897V131.118Z" fill="#01A69E"/>
<path d="M103.832 159.979V103.978L150.26 75.8254V131.536L103.832 159.979ZM105.234 104.805V157.44L148.858 130.709V78.3636L105.234 104.805Z" fill="#01A69E"/>
<defs>
<linearGradient id="paint0_linear_1546_6777" x1="103.832" y1="231.145" x2="103.832" y2="-0.00852846" gradientUnits="userSpaceOnUse">
<stop stop-color="#08AFEF"/>
<stop offset="1" stop-color="#2671A8"/>
</linearGradient>
</defs>
</svg>
